<svg width="48" height="48" viewBox="0 0 48 48" fill="none" xmlns="http://www.w3.org/2000/svg">
<path d="M31.5 12C33.1569 12 34.5 10.6569 34.5 9.00005C34.5 7.34319 33.1569 6.00005 31.5 6.00005C29.8431 6.00005 28.5 7.34319 28.5 9.00005C28.5 10.6569 29.8431 12 31.5 12Z" fill="url(#paint0_linear_1370_2350)"/>
<path d="M6 27C7.65685 27 9 25.6569 9 24C9 22.3432 7.65685 21 6 21C4.34315 21 3 22.3432 3 24C3 25.6569 4.34315 27 6 27Z" fill="url(#paint1_linear_1370_2350)"/>
<path d="M42 18C40.6734 18.004 39.3856 18.4479 38.3384 19.2622C37.2912 20.0766 36.5436 21.2153 36.213 22.5H29.787C29.5746 21.6541 29.1787 20.8653 28.6275 20.1893C28.0763 19.5134 27.3832 18.967 26.5973 18.5887C25.8114 18.2104 24.952 18.0096 24.0798 18.0004C23.2077 17.9912 22.3442 18.1739 21.5505 18.5355L16.785 12.5805C17.5692 11.5512 17.9958 10.294 18 9.00005C18 7.81336 17.6481 6.65332 16.9888 5.66663C16.3295 4.67993 15.3925 3.9109 14.2961 3.45677C13.1997 3.00265 11.9933 2.88383 10.8295 3.11534C9.66557 3.34685 8.59648 3.91829 7.75736 4.75741C6.91825 5.59652 6.3468 6.66562 6.11529 7.82951C5.88378 8.99339 6.0026 10.1998 6.45673 11.2961C6.91085 12.3925 7.67989 13.3296 8.66658 13.9889C9.65328 14.6482 10.8133 15 12 15C12.8456 14.9963 13.6809 14.8138 14.451 14.4645L19.215 20.4195C18.4275 21.447 18.0007 22.7055 18.0007 24C18.0007 25.2946 18.4275 26.5531 19.215 27.5805L14.451 33.5355C13.6809 33.1863 12.8456 33.0038 12 33C10.8133 33 9.65328 33.3519 8.66658 34.0112C7.67989 34.6705 6.91085 35.6076 6.45673 36.7039C6.0026 37.8003 5.88378 39.0067 6.11529 40.1706C6.3468 41.3345 6.91825 42.4036 7.75736 43.2427C8.59648 44.0818 9.66557 44.6532 10.8295 44.8848C11.9933 45.1163 13.1997 44.9974 14.2961 44.5433C15.3925 44.0892 16.3295 43.3202 16.9888 42.3335C17.6481 41.3468 18 40.1867 18 39C17.9958 37.7061 17.5692 36.4488 16.785 35.4195L21.549 29.4645C22.3428 29.8265 23.2064 30.0094 24.0787 30.0003C24.951 29.9913 25.8107 29.7905 26.5968 29.4122C27.3828 29.0339 28.0761 28.4874 28.6274 27.8113C29.1787 27.1352 29.5746 26.3462 29.787 25.5H36.213C36.4955 26.5839 37.0762 27.5668 37.8892 28.3372C38.7022 29.1076 39.7149 29.6346 40.8124 29.8583C41.9099 30.0821 43.0481 29.9936 44.0978 29.603C45.1475 29.2123 46.0667 28.5352 46.7509 27.6485C47.4351 26.7617 47.857 25.7009 47.9686 24.5864C48.0802 23.4719 47.8771 22.3485 47.3823 21.3437C46.8875 20.3388 46.1209 19.4929 45.1695 18.9018C44.2181 18.3108 43.12 17.9984 42 18ZM9 9.00005C9 8.4067 9.17595 7.82668 9.50559 7.33334C9.83524 6.83999 10.3038 6.45547 10.852 6.22841C11.4001 6.00135 12.0033 5.94194 12.5853 6.05769C13.1672 6.17345 13.7018 6.45917 14.1213 6.87873C14.5409 7.29829 14.8266 7.83283 14.9424 8.41478C15.0581 8.99672 14.9987 9.59992 14.7716 10.1481C14.5446 10.6963 14.1601 11.1648 13.6667 11.4945C13.1734 11.8241 12.5933 12 12 12C11.2044 12 10.4413 11.684 9.87868 11.1214C9.31607 10.5588 9 9.7957 9 9.00005ZM12 42C11.4067 42 10.8266 41.8241 10.3333 41.4945C9.83994 41.1648 9.45543 40.6963 9.22836 40.1481C9.0013 39.5999 8.94189 38.9967 9.05765 38.4148C9.1734 37.8328 9.45912 37.2983 9.87868 36.8787C10.2982 36.4592 10.8328 36.1734 11.4147 36.0577C11.9967 35.9419 12.5999 36.0013 13.1481 36.2284C13.6962 36.4555 14.1648 36.84 14.4944 37.3333C14.8241 37.8267 15 38.4067 15 39C15 39.7957 14.6839 40.5588 14.1213 41.1214C13.5587 41.684 12.7957 42 12 42ZM24 27C23.4067 27 22.8266 26.8241 22.3333 26.4945C21.8399 26.1648 21.4554 25.6963 21.2284 25.1481C21.0013 24.5999 20.9419 23.9967 21.0576 23.4148C21.1734 22.8328 21.4591 22.2983 21.8787 21.8787C22.2982 21.4592 22.8328 21.1734 23.4147 21.0577C23.9967 20.9419 24.5999 21.0013 25.1481 21.2284C25.6962 21.4555 26.1648 21.84 26.4944 22.3333C26.8241 22.8267 27 23.4067 27 24C27 24.7957 26.6839 25.5588 26.1213 26.1214C25.5587 26.684 24.7957 27 24 27ZM42 27C41.4067 27 40.8266 26.8241 40.3333 26.4945C39.8399 26.1648 39.4554 25.6963 39.2284 25.1481C39.0013 24.5999 38.9419 23.9967 39.0576 23.4148C39.1734 22.8328 39.4591 22.2983 39.8787 21.8787C40.2982 21.4592 40.8328 21.1734 41.4147 21.0577C41.9967 20.9419 42.5999 21.0013 43.1481 21.2284C43.6962 21.4555 44.1648 21.84 44.4944 22.3333C44.8241 22.8267 45 23.4067 45 24C45 24.7957 44.6839 25.5588 44.1213 26.1214C43.5587 26.684 42.7957 27 42 27Z" fill="url(#paint2_linear_1370_2350)"/>
<defs>
<linearGradient id="paint0_linear_1370_2350" x1="28.5" y1="6.00005" x2="34.725" y2="11.85" gradientUnits="userSpaceOnUse">
<stop stop-color="#A1BAE9"/>
<stop offset="1" stop-color="#4F7EDD"/>
</linearGradient>
<linearGradient id="paint1_linear_1370_2350" x1="3" y1="21" x2="9.225" y2="26.85" gradientUnits="userSpaceOnUse">
<stop stop-color="#A1BAE9"/>
<stop offset="1" stop-color="#4F7EDD"/>
</linearGradient>
<linearGradient id="paint2_linear_1370_2350" x1="15.8136" y1="5.01928" x2="42.1644" y2="25.007" gradientUnits="userSpaceOnUse">
<stop stop-color="#1F4C9B"/>
<stop offset="1" stop-color="#447AD4"/>
</linearGradient>
</defs>
</svg>
