<svg width="49" height="48" viewBox="0 0 49 48" fill="none" xmlns="http://www.w3.org/2000/svg">
<path d="M15.986 0C17.2586 0 17.984 1.26783 17.984 2.54107V10.3444H16.373C16.0597 9.56951 15.4868 8.92778 14.7525 8.52918C14.0181 8.13057 13.1681 7.9999 12.348 8.15957C11.528 8.31923 10.7889 8.75929 10.2576 9.40432C9.72626 10.0493 9.43569 10.8592 9.43569 11.695C9.43569 12.5309 9.72626 13.3408 10.2576 13.9858C10.7889 14.6308 11.528 15.0709 12.348 15.2305C13.1681 15.3902 14.0181 15.2595 14.7525 14.8609C15.4868 14.4623 16.0597 13.8206 16.373 13.0457H17.984V32.6719C17.984 33.7453 17.5304 34.8132 16.5746 35.3012C15.7079 35.7554 14.745 35.995 13.7666 36C11.0486 36 9.02718 34.6241 7.72578 32.9961C6.8261 31.8716 6.19781 30.5546 5.88978 29.1476C5.04928 28.8993 4.27082 28.4758 3.60558 27.905C2.32758 26.8046 1.33398 25.0397 1.33398 22.4392C1.33398 21.0795 1.43118 19.8945 1.67598 18.8986H9.25398C10.4744 18.8986 11.486 19.7991 11.657 20.9715C10.8855 21.2908 10.249 21.8684 9.8563 22.6055C9.46361 23.3427 9.33919 24.1934 9.50433 25.0122C9.66947 25.8309 10.1139 26.5668 10.7616 27.0939C11.4092 27.621 12.2199 27.9064 13.0547 27.9015C13.8895 27.8965 14.6967 27.6013 15.338 27.0666C15.9793 26.5318 16.415 25.7906 16.5703 24.9699C16.7257 24.1493 16.5911 23.3001 16.1896 22.5677C15.7882 21.8353 15.1448 21.2653 14.3696 20.9553C14.275 19.6625 13.695 18.4533 12.7461 17.5707C11.7972 16.6881 10.5496 16.1975 9.25398 16.1973H3.20598C3.475 15.9737 3.77515 15.7904 4.09698 15.6534C3.91313 14.9913 3.80563 14.3104 3.77658 13.6238C3.71718 12.3002 3.91518 10.9225 4.30758 9.69605C4.69638 8.48944 5.31198 7.31346 6.17598 6.50125C6.71654 5.9709 7.40381 5.61516 8.14878 5.48014C8.50698 3.96738 9.41958 2.71756 10.5842 1.81171C12.08 0.644722 14.0402 0 15.9842 0M20.684 27.0027H23.654C25.0145 27.0027 26.3194 26.462 27.2814 25.4994C28.2435 24.5369 28.784 23.2314 28.784 21.8701V18.6375C29.5585 18.3241 30.1999 17.7509 30.5983 17.0162C30.9967 16.2815 31.1273 15.431 30.9677 14.6106C30.8081 13.7901 30.3683 13.0507 29.7236 12.5191C29.0789 11.9875 28.2694 11.6968 27.434 11.6968C26.5985 11.6968 25.7891 11.9875 25.1444 12.5191C24.4997 13.0507 24.0599 13.7901 23.9003 14.6106C23.7407 15.431 23.8713 16.2815 24.2697 17.0162C24.6681 17.7509 25.3095 18.3241 26.084 18.6375V21.8701C26.084 22.5149 25.828 23.1333 25.3723 23.5893C24.9165 24.0452 24.2985 24.3013 23.654 24.3013H20.684V2.54107C20.684 1.26783 21.4094 0 22.682 0C24.6296 0 26.588 0.644722 28.0838 1.81171C29.2484 2.71756 30.161 3.96918 30.5192 5.48014C31.2752 5.6062 31.9484 5.9916 32.492 6.50125C33.356 7.31346 33.9716 8.48764 34.3604 9.69605C34.7528 10.9225 34.9508 12.3002 34.8914 13.6238C34.8608 14.301 34.7618 14.9925 34.571 15.6534L34.6898 15.7075C35.3558 16.0208 35.8958 16.5125 36.299 17.1662C37.064 18.3998 37.334 20.1755 37.334 22.4392C37.334 25.0415 36.3404 26.8082 35.0624 27.905C34.3966 28.476 33.6175 28.8995 32.7764 29.1476C32.4689 30.5545 31.8412 31.8714 30.9422 32.9961C29.6408 34.6241 27.6194 36 24.8996 36C23.9214 35.9956 22.9585 35.7566 22.0916 35.303C21.1376 34.8132 20.684 33.7453 20.684 32.6719V27.0027ZM12.134 11.695C12.134 11.4562 12.2288 11.2272 12.3976 11.0583C12.5664 10.8895 12.7953 10.7946 13.034 10.7946C13.2727 10.7946 13.5016 10.8895 13.6704 11.0583C13.8392 11.2272 13.934 11.4562 13.934 11.695C13.934 11.9339 13.8392 12.1629 13.6704 12.3318C13.5016 12.5006 13.2727 12.5955 13.034 12.5955C12.7953 12.5955 12.5664 12.5006 12.3976 12.3318C12.2288 12.1629 12.134 11.9339 12.134 11.695ZM13.034 23.4009C12.7953 23.4009 12.5664 23.4958 12.3976 23.6646C12.2288 23.8335 12.134 24.0625 12.134 24.3013C12.134 24.5402 12.2288 24.7692 12.3976 24.9381C12.5664 25.1069 12.7953 25.2018 13.034 25.2018C13.2727 25.2018 13.5016 25.1069 13.6704 24.9381C13.8392 24.7692 13.934 24.5402 13.934 24.3013C13.934 24.0625 13.8392 23.8335 13.6704 23.6646C13.5016 23.4958 13.2727 23.4009 13.034 23.4009ZM26.534 15.2968C26.534 15.5357 26.6288 15.7647 26.7976 15.9336C26.9664 16.1024 27.1953 16.1973 27.434 16.1973C27.6727 16.1973 27.9016 16.1024 28.0704 15.9336C28.2392 15.7647 28.334 15.5357 28.334 15.2968C28.334 15.058 28.2392 14.829 28.0704 14.6601C27.9016 14.4913 27.6727 14.3964 27.434 14.3964C27.1953 14.3964 26.9664 14.4913 26.7976 14.6601C26.6288 14.829 26.534 15.058 26.534 15.2968Z" fill="#4E7FDC"/>
<circle cx="30.334" cy="30" r="16.5" fill="url(#paint0_linear_1416_269)" stroke="url(#paint1_linear_1416_269)" stroke-width="3"/>
<path d="M22.2794 27.5333L23.1127 27.0444V28.8889H37.5572V27.0611L38.3794 27.5333C38.5063 27.5997 38.6541 27.6145 38.7917 27.5746C38.9293 27.5347 39.0462 27.4431 39.1179 27.3191C39.1896 27.195 39.2106 27.048 39.1765 26.9089C39.1424 26.7697 39.0559 26.6491 38.9349 26.5722L30.3349 21.6222L21.7238 26.5722C21.6574 26.6069 21.5988 26.6547 21.5513 26.7127C21.5039 26.7707 21.4687 26.8377 21.4478 26.9097C21.4269 26.9816 21.4208 27.0571 21.4298 27.1315C21.4389 27.2058 21.4629 27.2776 21.5004 27.3425C21.5379 27.4074 21.5881 27.464 21.648 27.5089C21.708 27.5539 21.7764 27.5862 21.8492 27.6041C21.9219 27.6219 21.9976 27.6248 22.0715 27.6127C22.1454 27.6005 22.2161 27.5735 22.2794 27.5333ZM30.2516 23.95C30.3192 23.911 30.3958 23.8904 30.4738 23.8904C30.5518 23.8904 30.6285 23.911 30.696 23.95L34.4294 26.1111H32.6405L30.4738 24.8666L28.3072 26.1111H26.5238L30.2516 23.95Z" fill="url(#paint2_linear_1416_269)"/>
<path d="M38.5842 34.9999H38.112V34.5277C38.112 34.3583 38.0447 34.1958 37.9249 34.0759C37.805 33.9561 37.6425 33.8888 37.4731 33.8888H35.8898V29.7944H33.6675V33.8888H31.4453V29.7944H29.2231V33.8888H27.0009V29.7944H24.7786V33.8888H23.1953C23.0259 33.8888 22.8634 33.9561 22.7435 34.0759C22.6237 34.1958 22.5564 34.3583 22.5564 34.5277V34.9999H22.0842C21.9148 34.9999 21.7523 35.0672 21.6324 35.1871C21.5126 35.3069 21.4453 35.4694 21.4453 35.6388V37.2222H39.2231V35.6388C39.2231 35.4694 39.1558 35.3069 39.036 35.1871C38.9162 35.0672 38.7536 34.9999 38.5842 34.9999Z" fill="url(#paint3_linear_1416_269)"/>
<defs>
<linearGradient id="paint0_linear_1416_269" x1="14.2371" y1="13" x2="52.7763" y2="26.1972" gradientUnits="userSpaceOnUse">
<stop stop-color="#EBEBEB"/>
<stop offset="1" stop-color="white"/>
</linearGradient>
<linearGradient id="paint1_linear_1416_269" x1="12.334" y1="12" x2="49.684" y2="47.1" gradientUnits="userSpaceOnUse">
<stop stop-color="#A1BAE9"/>
<stop offset="1" stop-color="#CFE1FF"/>
</linearGradient>
<linearGradient id="paint2_linear_1416_269" x1="21.4258" y1="21.6222" x2="26.9538" y2="34.3237" gradientUnits="userSpaceOnUse">
<stop stop-color="#A1BAE9"/>
<stop offset="1" stop-color="#CFE1FF"/>
</linearGradient>
<linearGradient id="paint3_linear_1416_269" x1="21.4453" y1="29.7944" x2="27.1778" y2="42.6881" gradientUnits="userSpaceOnUse">
<stop stop-color="#A1BAE9"/>
<stop offset="1" stop-color="#CFE1FF"/>
</linearGradient>
</defs>
</svg>
