<svg width="48" height="48" viewBox="0 0 48 48" fill="none" xmlns="http://www.w3.org/2000/svg">
<g clip-path="url(#clip0_1370_1916)">
<path fill-rule="evenodd" clip-rule="evenodd" d="M36.5077 0.139165C36.3519 0.0479703 36.1756 0 35.9962 0C35.8168 0 35.6405 0.0479703 35.4848 0.139165L24.5114 6.63246C24.3563 6.72329 24.2273 6.85445 24.1375 7.01269C24.0477 7.17093 24.0003 7.35064 24 7.53366V20.5203C24.0003 20.7033 24.0477 20.883 24.1375 21.0412C24.2273 21.1995 24.3563 21.3306 24.5114 21.4215L28.9564 24.0557V10.892C28.9589 10.7161 29.0042 10.5437 29.0882 10.3904C29.1723 10.237 29.2925 10.1076 29.4378 10.0139L32.4463 8.10366L35.4547 6.21652C35.6152 6.11491 35.8001 6.06109 35.9887 6.06109C36.1774 6.06109 36.3623 6.11491 36.5227 6.21652L39.5312 8.10366L42.5396 10.0139C42.6871 10.109 42.8086 10.2408 42.8928 10.3971C42.977 10.5534 43.0211 10.7289 43.021 10.9074V17.1388C43.0225 17.3176 42.979 17.4937 42.8947 17.6502C42.8104 17.8067 42.6881 17.9383 42.5396 18.0323L39.5312 19.9503L36.5227 21.8297C36.2369 22.0146 35.9511 21.7142 35.9511 21.3675V18.9027C35.9758 18.7356 36.041 18.5774 36.1409 18.4428C36.2408 18.3083 36.3721 18.2015 36.5227 18.1324L39.0423 16.538C39.1898 16.4429 39.3113 16.3111 39.3955 16.1548C39.4796 15.9985 39.5237 15.823 39.5237 15.6445V13.0949C39.522 12.92 39.477 12.7483 39.3928 12.596C39.3086 12.4438 39.188 12.3159 39.0423 12.2245L36.5378 10.684C36.3773 10.5824 36.1924 10.5286 36.0038 10.5286C35.8151 10.5286 35.6302 10.5824 35.4698 10.684L32.9727 12.2245C32.8238 12.3135 32.6998 12.4404 32.6128 12.5929C32.5258 12.7454 32.4788 12.9183 32.4763 13.0949V14.9359V22.6385V25.9352C32.4801 25.9813 32.4801 26.0277 32.4763 26.0738L35.4848 27.8608C35.6405 27.952 35.8168 28 35.9962 28C36.1756 28 36.3519 27.952 36.5077 27.8608L47.4886 21.3675C47.6437 21.2767 47.7727 21.1455 47.8625 20.9873C47.9523 20.8291 47.9997 20.6494 48 20.4663V7.53366C47.9997 7.35064 47.9523 7.17093 47.8625 7.01269C47.7727 6.85445 47.6437 6.72329 47.4886 6.63246L36.5077 0.139165Z" fill="url(#paint0_linear_1370_1916)"/>
<path fill-rule="evenodd" clip-rule="evenodd" d="M36.5077 0.139165C36.3519 0.0479703 36.1756 0 35.9962 0C35.8168 0 35.6405 0.0479703 35.4848 0.139165L24.5114 6.63246C24.3563 6.72329 24.2273 6.85445 24.1375 7.01269C24.0477 7.17093 24.0003 7.35064 24 7.53366V20.5203C24.0003 20.7033 24.0477 20.883 24.1375 21.0412C24.2273 21.1995 24.3563 21.3306 24.5114 21.4215L28.9564 24.0557V10.892C28.9589 10.7161 29.0042 10.5437 29.0882 10.3904C29.1723 10.237 29.2925 10.1076 29.4378 10.0139L32.4463 8.10366L35.4547 6.21652C35.6152 6.11491 35.8001 6.06109 35.9887 6.06109C36.1774 6.06109 36.3623 6.11491 36.5227 6.21652L39.5312 8.10366L42.5396 10.0139C42.6871 10.109 42.8086 10.2408 42.8928 10.3971C42.977 10.5534 43.0211 10.7289 43.021 10.9074V17.1388C43.0225 17.3176 42.979 17.4937 42.8947 17.6502C42.8104 17.8067 42.6881 17.9383 42.5396 18.0323L39.5312 19.9503L36.5227 21.8297C36.2369 22.0146 35.9511 21.7142 35.9511 21.3675V18.9027C35.9758 18.7356 36.041 18.5774 36.1409 18.4428C36.2408 18.3083 36.3721 18.2015 36.5227 18.1324L39.0423 16.538C39.1898 16.4429 39.3113 16.3111 39.3955 16.1548C39.4796 15.9985 39.5237 15.823 39.5237 15.6445V13.0949C39.522 12.92 39.477 12.7483 39.3928 12.596C39.3086 12.4438 39.188 12.3159 39.0423 12.2245L36.5378 10.684C36.3773 10.5824 36.1924 10.5286 36.0038 10.5286C35.8151 10.5286 35.6302 10.5824 35.4698 10.684L32.9727 12.2245C32.8238 12.3135 32.6998 12.4404 32.6128 12.5929C32.5258 12.7454 32.4788 12.9183 32.4763 13.0949V14.9359V22.6385V25.9352C32.4801 25.9813 32.4801 26.0277 32.4763 26.0738L35.4848 27.8608C35.6405 27.952 35.8168 28 35.9962 28C36.1756 28 36.3519 27.952 36.5077 27.8608L47.4886 21.3675C47.6437 21.2767 47.7727 21.1455 47.8625 20.9873C47.9523 20.8291 47.9997 20.6494 48 20.4663V7.53366C47.9997 7.35064 47.9523 7.17093 47.8625 7.01269C47.7727 6.85445 47.6437 6.72329 47.4886 6.63246L36.5077 0.139165Z" fill="url(#paint1_linear_1370_1916)"/>
<path fill-rule="evenodd" clip-rule="evenodd" d="M36.5077 0.139165C36.3519 0.0479703 36.1756 0 35.9962 0C35.8168 0 35.6405 0.0479703 35.4848 0.139165L24.5114 6.63246C24.3563 6.72329 24.2273 6.85445 24.1375 7.01269C24.0477 7.17093 24.0003 7.35064 24 7.53366V20.5203C24.0003 20.7033 24.0477 20.883 24.1375 21.0412C24.2273 21.1995 24.3563 21.3306 24.5114 21.4215L28.9564 24.0557V10.892C28.9589 10.7161 29.0042 10.5437 29.0882 10.3904C29.1723 10.237 29.2925 10.1076 29.4378 10.0139L32.4463 8.10366L35.4547 6.21652C35.6152 6.11491 35.8001 6.06109 35.9887 6.06109C36.1774 6.06109 36.3623 6.11491 36.5227 6.21652L39.5312 8.10366L42.5396 10.0139C42.6871 10.109 42.8086 10.2408 42.8928 10.3971C42.977 10.5534 43.0211 10.7289 43.021 10.9074V17.1388C43.0225 17.3176 42.979 17.4937 42.8947 17.6502C42.8104 17.8067 42.6881 17.9383 42.5396 18.0323L39.5312 19.9503L36.5227 21.8297C36.2369 22.0146 35.9511 21.7142 35.9511 21.3675V18.9027C35.9758 18.7356 36.041 18.5774 36.1409 18.4428C36.2408 18.3083 36.3721 18.2015 36.5227 18.1324L39.0423 16.538C39.1898 16.4429 39.3113 16.3111 39.3955 16.1548C39.4796 15.9985 39.5237 15.823 39.5237 15.6445V13.0949C39.522 12.92 39.477 12.7483 39.3928 12.596C39.3086 12.4438 39.188 12.3159 39.0423 12.2245L36.5378 10.684C36.3773 10.5824 36.1924 10.5286 36.0038 10.5286C35.8151 10.5286 35.6302 10.5824 35.4698 10.684L32.9727 12.2245C32.8238 12.3135 32.6998 12.4404 32.6128 12.5929C32.5258 12.7454 32.4788 12.9183 32.4763 13.0949V14.9359V22.6385V25.9352C32.4801 25.9813 32.4801 26.0277 32.4763 26.0738L35.4848 27.8608C35.6405 27.952 35.8168 28 35.9962 28C36.1756 28 36.3519 27.952 36.5077 27.8608L47.4886 21.3675C47.6437 21.2767 47.7727 21.1455 47.8625 20.9873C47.9523 20.8291 47.9997 20.6494 48 20.4663V7.53366C47.9997 7.35064 47.9523 7.17093 47.8625 7.01269C47.7727 6.85445 47.6437 6.72329 47.4886 6.63246L36.5077 0.139165Z" fill="url(#paint2_linear_1370_1916)"/>
<path fill-rule="evenodd" clip-rule="evenodd" d="M23.0096 15H8.4C3.759 15 0 18.6919 0 23.25V39.75C0 44.3081 3.759 48 8.4 48H33.6C38.241 48 42 44.3081 42 39.75V26.5359L36.5 29.7113C36.3873 29.7764 36.265 29.8178 36.1402 29.8354L29.694 35.1506C29.19 35.5631 28.497 35.7281 27.846 35.5631L4.515 29.9531C5.145 28.4475 6.636 27.375 8.4 27.375H31.4534L24.3087 23.25H8.4C6.867 23.25 5.439 23.6831 4.2 24.3844V23.25C4.2 20.9812 6.09 19.125 8.4 19.125H23.0096V15Z" fill="url(#paint3_linear_1370_1916)"/>
</g>
<defs>
<linearGradient id="paint0_linear_1370_1916" x1="19.3187" y1="-14.6222" x2="64.353" y2="-11.9318" gradientUnits="userSpaceOnUse">
<stop stop-color="#18367C"/>
<stop offset="1" stop-color="#3C70C7"/>
</linearGradient>
<linearGradient id="paint1_linear_1370_1916" x1="19.3187" y1="-14.6222" x2="64.353" y2="-11.9318" gradientUnits="userSpaceOnUse">
<stop stop-color="#18367C"/>
<stop offset="1" stop-color="#3C70C7"/>
</linearGradient>
<linearGradient id="paint2_linear_1370_1916" x1="19.3187" y1="-14.6222" x2="64.353" y2="-11.9318" gradientUnits="userSpaceOnUse">
<stop stop-color="#18367C"/>
<stop offset="1" stop-color="#3C70C7"/>
</linearGradient>
<linearGradient id="paint3_linear_1370_1916" x1="0" y1="15" x2="33.7611" y2="55.3802" gradientUnits="userSpaceOnUse">
<stop stop-color="#A1BAE9"/>
<stop offset="1" stop-color="#CFE1FF"/>
</linearGradient>
<clipPath id="clip0_1370_1916">
<rect width="48" height="48" fill="white"/>
</clipPath>
</defs>
</svg>
