
<svg width="32" height="32" viewBox="0 0 32 32" fill="none" xmlns="http://www.w3.org/2000/svg">
<circle cx="16" cy="16" r="16" fill="#161414"/>
<path d="M22.6505 8.52845V7.33777H11.9287V16.9895H17.4209V16.9923H21.2611V15.8017H13.2684V8.52845H22.6505Z" fill="white"/>
<path d="M13.2684 25.0092V18.1802H11.9287V23.8185H10.4003V25.0092H13.2684Z" fill="white"/>
<path d="M9.08896 25.1C9.46753 25.1 9.77442 24.7931 9.77442 24.4146C9.77442 24.036 9.46753 23.7291 9.08896 23.7291C8.7104 23.7291 8.4035 24.036 8.4035 24.4146C8.4035 24.7931 8.7104 25.1 9.08896 25.1Z" fill="#79AEA1"/>
<path d="M22.5441 17.0661C22.9226 17.0661 23.2295 16.7592 23.2295 16.3806C23.2295 16.0021 22.9226 15.6952 22.5441 15.6952C22.1655 15.6952 21.8586 16.0021 21.8586 16.3806C21.8586 16.7592 22.1655 17.0661 22.5441 17.0661Z" fill="#79AEA1"/>
<path d="M23.8554 8.67459C24.2339 8.67459 24.5408 8.3677 24.5408 7.98914C24.5408 7.61057 24.2339 7.30368 23.8554 7.30368C23.4768 7.30368 23.1699 7.61057 23.1699 7.98914C23.1699 8.3677 23.4768 8.67459 23.8554 8.67459Z" fill="#79AEA1"/>
</svg>
