<svg width="62" height="49" viewBox="0 0 62 49" fill="none" xmlns="http://www.w3.org/2000/svg">
<path d="M52.3071 4.53006C48.31 2.65991 44.0361 1.30076 39.5678 0.526855C39.0191 1.51898 38.378 2.85341 37.9359 3.91494C33.1861 3.20062 28.4799 3.20062 23.8174 3.91494C23.3755 2.85341 22.7198 1.51898 22.1662 0.526855C17.6931 1.30076 13.4143 2.6649 9.41718 4.53996C1.35498 16.723 -0.830549 28.6034 0.262218 40.3152C5.60949 44.3084 10.7916 46.7341 15.8863 48.3215C17.1443 46.5902 18.2661 44.7499 19.2326 42.8103C17.3919 42.1109 15.6289 41.2478 13.9631 40.2458C14.4051 39.9184 14.8373 39.576 15.255 39.2238C25.4153 43.9761 36.4547 43.9761 46.4936 39.2238C46.9161 39.576 47.3483 39.9184 47.7854 40.2458C46.1147 41.2527 44.3469 42.1158 42.5062 42.8153C43.4727 44.7499 44.5897 46.5952 45.8525 48.3264C50.9521 46.739 56.139 44.3134 61.4863 40.3152C62.7685 26.7383 59.2959 14.967 52.3071 4.53006ZM20.6168 33.1126C17.5668 33.1126 15.0655 30.2652 15.0655 26.7978C15.0655 23.3304 17.5134 20.4781 20.6168 20.4781C23.7203 20.4781 26.2215 23.3254 26.1681 26.7978C26.1729 30.2652 23.7203 33.1126 20.6168 33.1126ZM41.1317 33.1126C38.0817 33.1126 35.5804 30.2652 35.5804 26.7978C35.5804 23.3304 38.0282 20.4781 41.1317 20.4781C44.2351 20.4781 46.7364 23.3254 46.683 26.7978C46.683 30.2652 44.2351 33.1126 41.1317 33.1126Z" fill="#5865F2"/>
</svg>
