<svg width="49" height="41" viewBox="0 0 49 41" fill="none" xmlns="http://www.w3.org/2000/svg">
<path d="M27.6504 20.2706L32.3285 25.6144L38.6191 29.6363L39.716 20.3081L38.6191 11.1769L32.2066 14.7113L27.6504 20.2706Z" fill="#00832D"/>
<path d="M0.5 28.7738V36.7238C0.5 38.5425 1.97187 40.0144 3.79062 40.0144H11.7406L13.3906 34.005L11.7406 28.7738L6.28438 27.1238L0.5 28.7738Z" fill="#0066DA"/>
<path d="M11.7406 0.526855L0.5 11.7675L6.28438 13.4175L11.7406 11.7675L13.3625 6.61123L11.7406 0.526855Z" fill="#E94235"/>
<path d="M11.7406 11.7675H0.5V28.7737H11.7406V11.7675Z" fill="#2684FC"/>
<path d="M45.809 5.28944L38.6184 11.1769V29.6363L45.8371 35.5519C46.9152 36.3957 48.4996 35.6269 48.4996 34.2488V6.55506C48.4996 5.16756 46.8871 4.40819 45.809 5.28944ZM27.6496 20.2707V28.7738H11.7402V40.0144H35.3277C37.1465 40.0144 38.6184 38.5426 38.6184 36.7238V29.6363L27.6496 20.2707Z" fill="#00AC47"/>
<path d="M35.3277 0.526855H11.7402V11.7675H27.6496V20.2706L38.6184 11.1862V3.81748C38.6184 1.99873 37.1465 0.526855 35.3277 0.526855Z" fill="#FFBA00"/>
</svg>
