<svg width="48" height="48" viewBox="0 0 48 48" fill="none" xmlns="http://www.w3.org/2000/svg">
<path d="M25.4394 11.1067C26.7727 10.6747 27.842 9.65865 28.3487 8.35999L39.6367 19.6507C38.9925 19.9035 38.4122 20.2957 37.9373 20.7991C37.4625 21.3026 37.1049 21.9048 36.89 22.5627L25.4394 11.1067ZM36.8927 25.44L25.4367 36.8933C26.77 37.3253 27.842 38.3413 28.3487 39.64L39.6367 28.3493C38.9925 28.0965 38.4122 27.7043 37.9373 27.2008C37.4625 26.6974 37.1049 26.0952 36.89 25.4373M22.5594 36.8933L11.106 25.4373C10.674 26.7707 9.66071 27.8427 8.35938 28.3493L19.65 39.6373C20.1567 38.3387 21.226 37.3253 22.562 36.8907M22.5594 11.1067L11.106 22.5627C10.8912 21.9048 10.5336 21.3026 10.0587 20.7991C9.58388 20.2957 9.00357 19.9035 8.35938 19.6507L19.65 8.36265C20.1567 9.66132 21.226 10.6747 22.562 11.1093" fill="url(#paint0_linear_1370_1931)"/>
<path fill-rule="evenodd" clip-rule="evenodd" d="M23.9987 4C23.2915 4 22.6132 4.28095 22.1131 4.78105C21.613 5.28115 21.332 5.95942 21.332 6.66667C21.332 7.37391 21.613 8.05219 22.1131 8.55228C22.6132 9.05238 23.2915 9.33333 23.9987 9.33333C24.7059 9.33333 25.3842 9.05238 25.8843 8.55228C26.3844 8.05219 26.6654 7.37391 26.6654 6.66667C26.6654 5.95942 26.3844 5.28115 25.8843 4.78105C25.3842 4.28095 24.7059 4 23.9987 4ZM17.332 6.66667C17.332 4.89856 18.0344 3.20286 19.2847 1.95262C20.5349 0.702379 22.2306 0 23.9987 0C25.7668 0 27.4625 0.702379 28.7127 1.95262C29.963 3.20286 30.6654 4.89856 30.6654 6.66667C30.6654 8.43478 29.963 10.1305 28.7127 11.3807C27.4625 12.631 25.7668 13.3333 23.9987 13.3333C22.2306 13.3333 20.5349 12.631 19.2847 11.3807C18.0344 10.1305 17.332 8.43478 17.332 6.66667ZM23.9987 38.6667C23.2915 38.6667 22.6132 38.9476 22.1131 39.4477C21.613 39.9478 21.332 40.6261 21.332 41.3333C21.332 42.0406 21.613 42.7189 22.1131 43.219C22.6132 43.7191 23.2915 44 23.9987 44C24.7059 44 25.3842 43.7191 25.8843 43.219C26.3844 42.7189 26.6654 42.0406 26.6654 41.3333C26.6654 40.6261 26.3844 39.9478 25.8843 39.4477C25.3842 38.9476 24.7059 38.6667 23.9987 38.6667ZM17.332 41.3333C17.332 39.5652 18.0344 37.8695 19.2847 36.6193C20.5349 35.369 22.2306 34.6667 23.9987 34.6667C25.7668 34.6667 27.4625 35.369 28.7127 36.6193C29.963 37.8695 30.6654 39.5652 30.6654 41.3333C30.6654 43.1014 29.963 44.7971 28.7127 46.0474C27.4625 47.2976 25.7668 48 23.9987 48C22.2306 48 20.5349 47.2976 19.2847 46.0474C18.0344 44.7971 17.332 43.1014 17.332 41.3333Z" fill="url(#paint1_linear_1370_1931)"/>
<path fill-rule="evenodd" clip-rule="evenodd" d="M41.3346 21.3334C40.6274 21.3334 39.9491 21.6143 39.449 22.1144C38.9489 22.6145 38.668 23.2928 38.668 24C38.668 24.7073 38.9489 25.3856 39.449 25.8857C39.9491 26.3858 40.6274 26.6667 41.3346 26.6667C42.0419 26.6667 42.7202 26.3858 43.2203 25.8857C43.7204 25.3856 44.0013 24.7073 44.0013 24C44.0013 23.2928 43.7204 22.6145 43.2203 22.1144C42.7202 21.6143 42.0419 21.3334 41.3346 21.3334ZM34.668 24C34.668 22.2319 35.3703 20.5362 36.6206 19.286C37.8708 18.0358 39.5665 17.3334 41.3346 17.3334C43.1027 17.3334 44.7984 18.0358 46.0487 19.286C47.2989 20.5362 48.0013 22.2319 48.0013 24C48.0013 25.7682 47.2989 27.4638 46.0487 28.7141C44.7984 29.9643 43.1027 30.6667 41.3346 30.6667C39.5665 30.6667 37.8708 29.9643 36.6206 28.7141C35.3703 27.4638 34.668 25.7682 34.668 24Z" fill="url(#paint2_linear_1370_1931)"/>
<path d="M6.66667 30.6666C10.3486 30.6666 13.3333 27.6819 13.3333 24C13.3333 20.3181 10.3486 17.3333 6.66667 17.3333C2.98477 17.3333 0 20.3181 0 24C0 27.6819 2.98477 30.6666 6.66667 30.6666Z" fill="url(#paint3_linear_1370_1931)"/>
<defs>
<linearGradient id="paint0_linear_1370_1931" x1="8.35937" y1="8.35999" x2="40.8122" y2="38.8552" gradientUnits="userSpaceOnUse">
<stop stop-color="#A1BAE9"/>
<stop offset="1" stop-color="#CFE1FF"/>
</linearGradient>
<linearGradient id="paint1_linear_1370_1931" x1="17.332" y1="0" x2="41.7203" y2="6.36642" gradientUnits="userSpaceOnUse">
<stop stop-color="#A1BAE9"/>
<stop offset="1" stop-color="#CFE1FF"/>
</linearGradient>
<linearGradient id="paint2_linear_1370_1931" x1="34.668" y1="17.3334" x2="48.5013" y2="30.3334" gradientUnits="userSpaceOnUse">
<stop stop-color="#A1BAE9"/>
<stop offset="1" stop-color="#CFE1FF"/>
</linearGradient>
<linearGradient id="paint3_linear_1370_1931" x1="-2.60073" y1="10.3704" x2="22.3862" y2="12.1119" gradientUnits="userSpaceOnUse">
<stop stop-color="#18367C"/>
<stop offset="1" stop-color="#3C70C7"/>
</linearGradient>
</defs>
</svg>
