<svg width="48" height="48" viewBox="0 0 48 48" fill="none" xmlns="http://www.w3.org/2000/svg">
<g clip-path="url(#clip0_1370_2336)">
<path d="M24 0C10.765 0 0 10.765 0 24C0 37.235 10.765 48 24 48C37.235 48 48 37.235 48 24C48 10.765 37.235 0 24 0ZM25.2029 3.39744C31.3555 3.74928 36.7733 6.78288 40.3162 11.3501C39.3811 11.3258 38.4502 11.3205 37.5235 11.3342C35.9146 11.3608 34.3071 11.446 32.7043 11.5896C32.4096 10.9812 31.9495 10.4682 31.3768 10.1091C30.804 9.75 30.1418 9.55944 29.4658 9.5592C29.2983 9.55922 29.131 9.57093 28.9651 9.59424C27.8381 7.45412 26.5817 5.38468 25.2029 3.39744ZM22.2854 3.43584C24.0312 5.82096 25.5446 8.24208 26.8397 10.6968C26.3579 11.2106 26.0375 11.8545 25.9181 12.5486C23.6789 12.9852 21.4633 13.5347 19.2797 14.195C19.008 13.8277 18.6688 13.5154 18.2803 13.2749C19.1861 10.0421 20.4533 6.76656 22.0733 3.45168C22.1438 3.44544 22.2149 3.44208 22.2854 3.43584ZM19.1942 3.9264C17.8406 6.8856 16.7606 9.83376 15.9571 12.7632C15.4711 12.8215 15.002 12.9784 14.5786 13.2241C14.1552 13.4699 13.7864 13.7995 13.4947 14.1926C11.3289 13.5022 9.13533 12.902 6.91968 12.3936C9.81139 8.13852 14.1896 5.11839 19.1942 3.9264ZM38.9333 13.727C39.9374 13.7333 40.9464 13.7654 41.9606 13.8182C43.1731 15.9534 43.992 18.2891 44.3784 20.7139C41.4744 21.1862 38.6472 21.8405 35.8949 22.6651C35.5978 22.2972 35.231 21.9914 34.8157 21.7652C34.4004 21.5391 33.9445 21.397 33.4742 21.347C33.0115 19.5052 32.448 17.6901 31.7861 15.9101C32.3814 15.4078 32.7977 14.726 32.9726 13.967C34.9402 13.7962 36.9259 13.7141 38.9333 13.727ZM5.63136 14.5728C8.08032 15.1118 10.4698 15.7421 12.7896 16.4827L12.7901 16.4971C9.66624 17.7802 6.59472 19.2931 3.57456 21.0269C3.89744 18.7763 4.59254 16.5952 5.63136 14.5728ZM26.3165 14.9011C26.6276 15.4637 27.0838 15.9327 27.6375 16.2594C28.1913 16.586 28.8224 16.7585 29.4653 16.7587L29.5622 16.7563C30.1896 18.4367 30.7242 20.1504 31.1635 21.8894C30.9832 22.0037 30.8134 22.1339 30.6562 22.2782C27.2713 20.0721 23.6978 18.1698 19.9776 16.5936C19.9805 16.5527 19.9827 16.5117 19.9843 16.4707C22.0675 15.8415 24.1806 15.3177 26.3165 14.9011ZM13.6834 18.7128C13.9481 19.0138 14.2612 19.2685 14.6098 19.4664C14.0184 24.0941 14.1494 28.657 15.0518 33.1205C12.925 34.6754 10.8761 36.3342 8.91264 38.0909C5.46816 34.405 3.36 29.4557 3.36 24C3.36 23.9774 3.36192 23.9558 3.36192 23.9333C6.74448 21.901 10.1827 20.1557 13.6829 18.7133M19.021 18.7896C22.688 20.339 26.2068 22.2183 29.5339 24.4042C29.5081 24.5774 29.4949 24.7522 29.4946 24.9274V24.9499C25.1938 26.7379 21.0878 28.9723 17.172 31.6286C16.4952 27.7896 16.4232 23.8766 16.9286 19.8955C17.7308 19.7732 18.4681 19.3835 19.021 18.7896ZM44.6174 23.1067C44.6299 23.4029 44.64 23.7005 44.64 24C44.6435 26.9234 44.0245 29.8141 42.8242 32.4797C40.804 30.3284 38.6442 28.3125 36.359 26.4451C36.5792 25.9719 36.6939 25.4565 36.695 24.9346C39.295 24.16 41.941 23.5496 44.6174 23.1067ZM30.3048 27.2006C30.8229 27.8366 31.5426 28.2765 32.3448 28.4477C32.8699 33.204 32.7096 38.0794 31.8974 43.0781C29.393 44.112 26.7095 44.6428 24 44.64C23.2906 44.64 22.5906 44.605 21.9 44.5349C19.9742 41.1442 18.5837 37.6853 17.7101 34.1635C21.7075 31.3685 25.9003 29.0395 30.3048 27.2006ZM34.7117 28.1894C37.1782 30.1996 39.4945 32.3873 41.6419 34.7352C39.8781 37.6283 37.4308 40.0438 34.5149 41.7696C35.1317 37.1606 35.2061 32.6285 34.7117 28.1894ZM15.6509 35.6563C16.4141 38.485 17.4912 41.2709 18.8923 44.005C15.8583 43.2338 13.0407 41.7795 10.6546 39.7531C12.2851 38.3035 13.9502 36.9355 15.6509 35.6563Z" fill="url(#paint0_linear_1370_2336)"/>
<path d="M34 48C41.732 48 48 41.732 48 34C48 26.268 41.732 20 34 20C26.268 20 20 26.268 20 34C20 41.732 26.268 48 34 48Z" fill="url(#paint1_linear_1370_2336)" stroke="white" stroke-linecap="round" stroke-linejoin="round"/>
<path d="M34.0005 43.4419C39.215 43.4419 43.4423 39.2146 43.4423 34C43.4423 28.7854 39.215 24.5581 34.0005 24.5581C28.7859 24.5581 24.5586 28.7854 24.5586 34C24.5586 39.2146 28.7859 43.4419 34.0005 43.4419Z" fill="url(#paint2_linear_1370_2336)" stroke="white" stroke-linecap="round" stroke-linejoin="round"/>
<path d="M34 28.1818C37.2128 28.1818 39.8181 30.7864 39.8181 33.9999L34 28.1818Z" fill="url(#paint3_linear_1370_2336)"/>
<path d="M34 28.1818C37.2128 28.1818 39.8181 30.7864 39.8181 33.9999" stroke="white" stroke-linecap="round" stroke-linejoin="round"/>
</g>
<defs>
<linearGradient id="paint0_linear_1370_2336" x1="0" y1="0" x2="49.8" y2="46.8" gradientUnits="userSpaceOnUse">
<stop stop-color="#A1BAE9"/>
<stop offset="1" stop-color="#CFE1FF"/>
</linearGradient>
<linearGradient id="paint1_linear_1370_2336" x1="14.5385" y1="5.37778" x2="67.0111" y2="9.03502" gradientUnits="userSpaceOnUse">
<stop stop-color="#18367C"/>
<stop offset="1" stop-color="#3C70C7"/>
</linearGradient>
<linearGradient id="paint2_linear_1370_2336" x1="20.8752" y1="14.6966" x2="56.2638" y2="17.1632" gradientUnits="userSpaceOnUse">
<stop stop-color="#18367C"/>
<stop offset="1" stop-color="#3C70C7"/>
</linearGradient>
<linearGradient id="paint3_linear_1370_2336" x1="32.8651" y1="25.1434" x2="43.7685" y2="25.9033" gradientUnits="userSpaceOnUse">
<stop stop-color="#18367C"/>
<stop offset="1" stop-color="#3C70C7"/>
</linearGradient>
<clipPath id="clip0_1370_2336">
<rect width="48" height="48" fill="white"/>
</clipPath>
</defs>
</svg>
