<svg width="48" height="48" viewBox="0 0 48 48" fill="none" xmlns="http://www.w3.org/2000/svg">
<path d="M40 30V15L27.5 7.96899M20.5 7.96899L8 15V30M11 34.688L24 42L32 37.5L37 34.688" stroke="url(#paint0_linear_1370_2303)" stroke-width="4" stroke-linecap="round" stroke-linejoin="round"/>
<path d="M24 17V10M30 27L37 31M18 27L11 31" stroke="url(#paint1_linear_1370_2303)" stroke-width="4" stroke-linecap="round" stroke-linejoin="round"/>
<path d="M24 11C26.2091 11 28 9.20914 28 7C28 4.79086 26.2091 3 24 3C21.7909 3 20 4.79086 20 7C20 9.20914 21.7909 11 24 11Z" fill="url(#paint2_linear_1370_2303)"/>
<path d="M8 37C10.2091 37 12 35.2091 12 33C12 30.7909 10.2091 29 8 29C5.79086 29 4 30.7909 4 33C4 35.2091 5.79086 37 8 37Z" fill="url(#paint3_linear_1370_2303)"/>
<path d="M40 37C42.2091 37 44 35.2091 44 33C44 30.7909 42.2091 29 40 29C37.7909 29 36 30.7909 36 33C36 35.2091 37.7909 37 40 37Z" fill="url(#paint4_linear_1370_2303)"/>
<path fill-rule="evenodd" clip-rule="evenodd" d="M24.275 17.0746C24.1906 17.0257 24.0951 17 23.998 17C23.9008 17 23.8053 17.0257 23.7209 17.0746L17.777 20.5531C17.693 20.6018 17.6231 20.672 17.5745 20.7568C17.5258 20.8416 17.5001 20.9378 17.5 21.0359V27.993C17.5001 28.091 17.5258 28.1873 17.5745 28.2721C17.6231 28.3569 17.693 28.4271 17.777 28.4758L20.1847 29.887V22.835C20.1861 22.7408 20.2106 22.6484 20.2561 22.5663C20.3017 22.4841 20.3668 22.4148 20.4455 22.3646L22.0751 21.3412L23.7046 20.3303C23.7915 20.2758 23.8917 20.247 23.9939 20.247C24.0961 20.247 24.1962 20.2758 24.2831 20.3303L25.9127 21.3412L27.5423 22.3646C27.6222 22.4155 27.688 22.4862 27.7336 22.5699C27.7792 22.6536 27.8031 22.7476 27.803 22.8433V26.1815C27.8039 26.2773 27.7803 26.3716 27.7346 26.4555C27.689 26.5393 27.6227 26.6098 27.5423 26.6602L25.9127 27.6876L24.2831 28.6945C24.1283 28.7935 23.9735 28.6326 23.9735 28.4469V27.1265C23.9869 27.0369 24.0222 26.9522 24.0763 26.8801C24.1304 26.808 24.2015 26.7508 24.2831 26.7138L25.6479 25.8596C25.7278 25.8087 25.7936 25.7381 25.8392 25.6544C25.8848 25.5707 25.9087 25.4766 25.9086 25.381V24.0151C25.9078 23.9214 25.8834 23.8294 25.8378 23.7479C25.7922 23.6663 25.7268 23.5978 25.6479 23.5489L24.2913 22.7236C24.2044 22.6692 24.1042 22.6403 24.002 22.6403C23.8999 22.6403 23.7997 22.6692 23.7128 22.7236L22.3602 23.5489C22.2795 23.5965 22.2124 23.6645 22.1653 23.7462C22.1181 23.8279 22.0927 23.9205 22.0914 24.0151V25.0014V29.1278V30.8938C22.0934 30.9186 22.0934 30.9434 22.0914 30.9681L23.7209 31.9254C23.8053 31.9743 23.9008 32 23.998 32C24.0951 32 24.1906 31.9743 24.275 31.9254L30.223 28.4469C30.307 28.3982 30.3769 28.328 30.4255 28.2432C30.4742 28.1584 30.4999 28.0622 30.5 27.9641V21.0359C30.4999 20.9378 30.4742 20.8416 30.4255 20.7568C30.3769 20.672 30.307 20.6018 30.223 20.5531L24.275 17.0746Z" fill="url(#paint5_linear_1370_2303)"/>
<path fill-rule="evenodd" clip-rule="evenodd" d="M39 20C40.0506 20 41.0909 19.7931 42.0615 19.391C43.0321 18.989 43.914 18.3997 44.6569 17.6569C45.3997 16.914 45.989 16.0321 46.391 15.0615C46.7931 14.0909 47 13.0506 47 12C47 10.9494 46.7931 9.90914 46.391 8.93853C45.989 7.96793 45.3997 7.08601 44.6569 6.34315C43.914 5.60028 43.0321 5.011 42.0615 4.60896C41.0909 4.20693 40.0506 4 39 4C36.8783 4 34.8434 4.84285 33.3431 6.34315C31.8429 7.84344 31 9.87827 31 12C31 14.1217 31.8429 16.1566 33.3431 17.6569C34.8434 19.1571 36.8783 20 39 20ZM38.7938 15.2356L43.2382 9.90222L41.8729 8.76444L38.0507 13.3502L36.0729 11.3716L34.816 12.6284L37.4827 15.2951L38.1707 15.9831L38.7938 15.2356Z" fill="url(#paint6_linear_1370_2303)"/>
<defs>
<linearGradient id="paint0_linear_1370_2303" x1="8" y1="7.96899" x2="43.1065" y2="38.9917" gradientUnits="userSpaceOnUse">
<stop stop-color="#A1BAE9"/>
<stop offset="1" stop-color="#CFE1FF"/>
</linearGradient>
<linearGradient id="paint1_linear_1370_2303" x1="11" y1="10" x2="32.5816" y2="35.1104" gradientUnits="userSpaceOnUse">
<stop stop-color="#A1BAE9"/>
<stop offset="1" stop-color="#CFE1FF"/>
</linearGradient>
<linearGradient id="paint2_linear_1370_2303" x1="20" y1="3" x2="28.3" y2="10.8" gradientUnits="userSpaceOnUse">
<stop stop-color="#A1BAE9"/>
<stop offset="1" stop-color="#CFE1FF"/>
</linearGradient>
<linearGradient id="paint3_linear_1370_2303" x1="4" y1="29" x2="12.3" y2="36.8" gradientUnits="userSpaceOnUse">
<stop stop-color="#A1BAE9"/>
<stop offset="1" stop-color="#CFE1FF"/>
</linearGradient>
<linearGradient id="paint4_linear_1370_2303" x1="36" y1="29" x2="44.3" y2="36.8" gradientUnits="userSpaceOnUse">
<stop stop-color="#A1BAE9"/>
<stop offset="1" stop-color="#CFE1FF"/>
</linearGradient>
<linearGradient id="paint5_linear_1370_2303" x1="17.5" y1="17" x2="32.7698" y2="29.4366" gradientUnits="userSpaceOnUse">
<stop stop-color="#A1BAE9"/>
<stop offset="1" stop-color="#CFE1FF"/>
</linearGradient>
<linearGradient id="paint6_linear_1370_2303" x1="27.8791" y1="-4.35555" x2="57.8635" y2="-2.2657" gradientUnits="userSpaceOnUse">
<stop stop-color="#18367C"/>
<stop offset="1" stop-color="#3C70C7"/>
</linearGradient>
</defs>
</svg>
