<svg width="320" height="365" viewBox="0 0 320 365" fill="none" xmlns="http://www.w3.org/2000/svg">
<g filter="url(#filter0_d_222_2475)">
<path fill-rule="evenodd" clip-rule="evenodd" d="M166.646 1.78022C162.521 -0.593406 157.479 -0.593406 153.354 1.78022L10.6464 84.3975C6.52105 86.7711 4 91.1738 4 95.921V261.079C4 265.865 6.52105 270.229 10.6464 272.603L68.4398 306.063V138.57C68.4398 133.975 70.808 129.688 74.7424 127.276L114.201 102.889L153.01 78.9229C157.288 76.2812 162.674 76.2812 166.952 78.9229L205.761 102.889L245.219 127.276C249.154 129.688 251.522 133.975 251.522 138.57V217.933C251.522 222.565 249.154 226.853 245.219 229.265L205.761 253.614L166.952 277.579C163.209 279.877 159.503 276.086 159.503 271.722V240.291C159.503 236.003 163.285 232.71 166.952 230.49L199.458 210.429C203.355 207.979 205.761 203.691 205.761 199.097V166.862C205.761 162.229 203.355 157.941 199.458 155.529L166.952 135.469C162.674 132.827 157.288 132.827 153.01 135.469L120.503 155.529C116.607 157.941 114.201 162.229 114.201 166.862V190.253C114.201 190.253 114.163 190.253 114.163 190.292V288.682H114.201C114.201 288.682 114.201 288.682 114.201 288.72V330.718C114.201 331.33 114.163 331.905 114.086 332.479L153.354 355.22C157.479 357.593 162.521 357.593 166.646 355.22L309.354 272.603C313.479 270.229 316 265.865 316 261.079V95.921C316 91.1738 313.479 86.7711 309.354 84.3975L166.646 1.78022Z" fill="#2A7DE1"/>
</g>
<defs>
<filter id="filter0_d_222_2475" x="0" y="0" width="320" height="365" filterUnits="userSpaceOnUse" color-interpolation-filters="sRGB">
<feFlood flood-opacity="0" result="BackgroundImageFix"/>
<feColorMatrix in="SourceAlpha" type="matrix" values="0 0 0 0 0 0 0 0 0 0 0 0 0 0 0 0 0 0 127 0" result="hardAlpha"/>
<feOffset dy="4"/>
<feGaussianBlur stdDeviation="2"/>
<feComposite in2="hardAlpha" operator="out"/>
<feColorMatrix type="matrix" values="0 0 0 0 0 0 0 0 0 0 0 0 0 0 0 0 0 0 0.25 0"/>
<feBlend mode="normal" in2="BackgroundImageFix" result="effect1_dropShadow_222_2475"/>
<feBlend mode="normal" in="SourceGraphic" in2="effect1_dropShadow_222_2475" result="shape"/>
</filter>
</defs>
</svg>
